<svg xmlns="http://www.w3.org/2000/svg" viewBox="0 0 24 30" x="0px" y="0px"><g><g><path d="M21.53,20.47l-2.4-2.4c.39-.59,.62-1.3,.62-2.06,0-2.07-1.68-3.75-3.75-3.75s-3.75,1.68-3.75,3.75,1.68,3.75,3.75,3.75c.76,0,1.47-.23,2.06-.62l2.4,2.4c.15,.15,.34,.22,.53,.22s.38-.07,.53-.22c.29-.29,.29-.77,0-1.06Zm-7.78-4.47c0-1.24,1.01-2.25,2.25-2.25s2.25,1.01,2.25,2.25-1.01,2.25-2.25,2.25-2.25-1.01-2.25-2.25Z"/><path d="M5.19,8.97l5-4.29c.47-.4,1.16-.4,1.63,0l5,4.29c.28,.24,.44,.58,.44,.95v1.08c0,.41,.34,.75,.75,.75s.75-.34,.75-.75v-1.08c0-.8-.35-1.57-.96-2.09L12.79,3.55c-1.04-.89-2.54-.89-3.58,0L4.21,7.83c-.61,.52-.96,1.28-.96,2.09v6.08c0,1.52,1.23,2.75,2.75,2.75h5c.41,0,.75-.34,.75-.75s-.34-.75-.75-.75H6c-.69,0-1.25-.56-1.25-1.25v-6.08c0-.37,.16-.71,.44-.95Z"/></g></g><text x="0" y="39" fill="#000000" font-size="5px" font-weight="bold" font-family="'Helvetica Neue', Helvetica, Arial-Unicode, Arial, Sans-serif">Created by Kreev Studio</text><text x="0" y="44" fill="#000000" font-size="5px" font-weight="bold" font-family="'Helvetica Neue', Helvetica, Arial-Unicode, Arial, Sans-serif">from the Noun Project</text></svg>